<svg width="1600" height="900" viewBox="0 0 1600 900" fill="none" xmlns="http://www.w3.org/2000/svg">
  <defs>
    <linearGradient id="sky" x1="0" y1="0" x2="0" y2="900" gradientUnits="userSpaceOnUse">
      <stop stop-color="#0F172A"/>
      <stop offset="0.42" stop-color="#1D4ED8"/>
      <stop offset="1" stop-color="#F59E0B"/>
    </linearGradient>
    <linearGradient id="mist" x1="0" y1="560" x2="1600" y2="560" gradientUnits="userSpaceOnUse">
      <stop stop-color="#FFFFFF" stop-opacity="0.0"/>
      <stop offset="0.5" stop-color="#FFFFFF" stop-opacity="0.22"/>
      <stop offset="1" stop-color="#FFFFFF" stop-opacity="0.0"/>
    </linearGradient>
  </defs>
  <rect width="1600" height="900" fill="url(#sky)"/>
  <circle cx="1230" cy="170" r="72" fill="#FDE68A" fill-opacity="0.92"/>
  <circle cx="1230" cy="170" r="112" fill="#FDE68A" fill-opacity="0.18"/>
  <path d="M0 640C160 592 270 560 400 576C520 592 624 530 748 500C900 464 1032 512 1160 556C1280 598 1410 620 1600 560V900H0V640Z" fill="#0F172A"/>
  <path d="M0 700C170 676 286 648 420 652C552 656 670 720 790 730C918 740 1048 680 1200 652C1368 620 1482 642 1600 666V900H0V700Z" fill="#111827"/>
  <path d="M190 636L308 548L386 608L444 550L548 636Z" fill="#0B1220"/>
  <path d="M520 628L656 516L748 604L818 534L936 628Z" fill="#0B1220"/>
  <path d="M920 640L1038 548L1118 614L1176 564L1288 640Z" fill="#0B1220"/>
  <path d="M110 780C276 740 408 724 558 740C704 756 826 794 978 790C1134 786 1270 742 1490 730" stroke="#FCD34D" stroke-opacity="0.3" stroke-width="8"/>
  <rect x="0" y="792" width="1600" height="108" fill="#07111D"/>
  <rect x="150" y="690" width="90" height="102" rx="10" fill="#111827"/>
  <rect x="255" y="652" width="140" height="140" rx="14" fill="#111827"/>
  <rect x="420" y="668" width="100" height="124" rx="12" fill="#0F172A"/>
  <rect x="560" y="630" width="182" height="162" rx="16" fill="#111827"/>
  <rect x="760" y="676" width="112" height="116" rx="12" fill="#0F172A"/>
  <rect x="892" y="642" width="150" height="150" rx="14" fill="#111827"/>
  <rect x="1070" y="666" width="96" height="126" rx="12" fill="#0F172A"/>
  <rect x="1198" y="624" width="178" height="168" rx="16" fill="#111827"/>
  <rect x="1394" y="684" width="108" height="108" rx="12" fill="#0F172A"/>
  <g opacity="0.9">
    <rect x="178" y="712" width="18" height="18" rx="4" fill="#FDE68A"/>
    <rect x="210" y="712" width="18" height="18" rx="4" fill="#FDE68A"/>
    <rect x="278" y="684" width="18" height="18" rx="4" fill="#FDE68A"/>
    <rect x="312" y="684" width="18" height="18" rx="4" fill="#FDE68A"/>
    <rect x="346" y="684" width="18" height="18" rx="4" fill="#FDE68A"/>
    <rect x="600" y="660" width="18" height="18" rx="4" fill="#FDE68A"/>
    <rect x="634" y="660" width="18" height="18" rx="4" fill="#FDE68A"/>
    <rect x="668" y="660" width="18" height="18" rx="4" fill="#FDE68A"/>
    <rect x="926" y="676" width="18" height="18" rx="4" fill="#FDE68A"/>
    <rect x="960" y="676" width="18" height="18" rx="4" fill="#FDE68A"/>
    <rect x="1226" y="650" width="18" height="18" rx="4" fill="#FDE68A"/>
    <rect x="1260" y="650" width="18" height="18" rx="4" fill="#FDE68A"/>
    <rect x="1294" y="650" width="18" height="18" rx="4" fill="#FDE68A"/>
  </g>
  <rect x="0" y="518" width="1600" height="18" fill="url(#mist)"/>
</svg>
